<svg width="14" height="14" viewBox="0 0 14 14" fill="none" xmlns="http://www.w3.org/2000/svg">
<path d="M5.75196 10.5001C5.67198 10.4998 5.5929 10.4831 5.51964 10.451C5.44639 10.4189 5.38052 10.3721 5.32613 10.3134L2.49113 7.29757C2.38515 7.18463 2.32838 7.03422 2.3333 6.87943C2.33823 6.72463 2.40444 6.57813 2.51738 6.47215C2.63032 6.36618 2.78073 6.30941 2.93552 6.31433C3.09032 6.31925 3.23682 6.38547 3.34279 6.4984L5.74613 9.05924L10.652 3.69257C10.7017 3.63057 10.7637 3.57941 10.834 3.54222C10.9042 3.50504 10.9814 3.48261 11.0606 3.47632C11.1399 3.47003 11.2196 3.48 11.2949 3.50564C11.3701 3.53128 11.4394 3.57203 11.4983 3.6254C11.5573 3.67876 11.6047 3.74361 11.6376 3.81597C11.6706 3.88832 11.6884 3.96666 11.69 4.04615C11.6916 4.12565 11.6769 4.20463 11.6469 4.27824C11.6168 4.35186 11.5721 4.41856 11.5153 4.47424L6.18363 10.3076C6.12975 10.3673 6.06411 10.4152 5.99083 10.4483C5.91755 10.4815 5.83821 10.4991 5.75779 10.5001H5.75196Z" fill="#F71919"/>
</svg>
