<svg width="360" height="302" viewBox="0 0 360 302" fill="none" xmlns="http://www.w3.org/2000/svg">
<path fill-rule="evenodd" clip-rule="evenodd" d="M183 20C183.342 20 183.496 21.1018 184.246 21.8518C184.996 22.6018 186 22.6592 186 23C186 23.3408 184.989 23.4936 184.239 24.2436C183.489 24.9936 183.434 26 183 26C182.566 26 182.488 24.9428 181.738 24.1928C180.988 23.4428 180 23.3736 180 23C180 22.6264 180.905 22.615 181.689 21.8307C182.473 21.0463 182.658 20 183 20Z" fill="#FFDB63"/>
<path fill-rule="evenodd" clip-rule="evenodd" d="M67 34C67.342 34 67.496 35.1018 68.246 35.8518C68.996 36.6018 70 36.6592 70 37C70 37.3408 68.989 37.4936 68.239 38.2436C67.489 38.9936 67.434 40 67 40C66.566 40 66.488 38.9428 65.738 38.1928C64.988 37.4428 64 37.3736 64 37C64 36.6264 64.905 36.615 65.689 35.8307C66.473 35.0463 66.658 34 67 34Z" fill="#FFDB63"/>
<path fill-rule="evenodd" clip-rule="evenodd" d="M114 24C114.342 24 114.496 25.1018 115.246 25.8518C115.996 26.6018 117 26.6592 117 27C117 27.3408 115.989 27.4936 115.239 28.2436C114.489 28.9936 114.434 30 114 30C113.566 30 113.488 28.9428 112.738 28.1928C111.988 27.4428 111 27.3736 111 27C111 26.6264 111.905 26.615 112.689 25.8307C113.473 25.0463 113.658 24 114 24Z" fill="#FFDB63"/>
<path fill-rule="evenodd" clip-rule="evenodd" d="M223 59C223.342 59 223.496 60.1018 224.246 60.8518C224.996 61.6018 226 61.6592 226 62C226 62.3408 224.989 62.4936 224.239 63.2436C223.489 63.9936 223.434 65 223 65C222.566 65 222.488 63.9428 221.738 63.1928C220.988 62.4428 220 62.3736 220 62C220 61.6264 220.905 61.615 221.689 60.8307C222.473 60.0463 222.658 59 223 59Z" fill="#FFDB63"/>
<path fill-rule="evenodd" clip-rule="evenodd" d="M289 49C290.105 49 291 48.1046 291 47C291 45.8954 290.105 45 289 45C287.895 45 287 45.8954 287 47C287 48.1046 287.895 49 289 49Z" fill="#FFDB63"/>
<path fill-rule="evenodd" clip-rule="evenodd" d="M250.5 128C251.328 128 252 127.328 252 126.5C252 125.672 251.328 125 250.5 125C249.672 125 249 125.672 249 126.5C249 127.328 249.672 128 250.5 128Z" fill="#E6EBEE"/>
<path fill-rule="evenodd" clip-rule="evenodd" d="M250.5 128C251.328 128 252 127.328 252 126.5C252 125.672 251.328 125 250.5 125C249.672 125 249 125.672 249 126.5C249 127.328 249.672 128 250.5 128Z" fill="white"/>
<path fill-rule="evenodd" clip-rule="evenodd" d="M223.5 151C224.328 151 225 150.328 225 149.5C225 148.672 224.328 148 223.5 148C222.672 148 222 148.672 222 149.5C222 150.328 222.672 151 223.5 151Z" fill="#E6EBEE"/>
<path fill-rule="evenodd" clip-rule="evenodd" d="M223.5 151C224.328 151 225 150.328 225 149.5C225 148.672 224.328 148 223.5 148C222.672 148 222 148.672 222 149.5C222 150.328 222.672 151 223.5 151Z" fill="white"/>
<path fill-rule="evenodd" clip-rule="evenodd" d="M106 58C106.552 58 107 57.5523 107 57C107 56.4477 106.552 56 106 56C105.448 56 105 56.4477 105 57C105 57.5523 105.448 58 106 58Z" fill="#FFDB63"/>
<path fill-rule="evenodd" clip-rule="evenodd" d="M99 131C99.5523 131 100 130.552 100 130C100 129.448 99.5523 129 99 129C98.4477 129 98 129.448 98 130C98 130.552 98.4477 131 99 131Z" fill="#E6EBEE"/>
<path fill-rule="evenodd" clip-rule="evenodd" d="M99 131C99.5523 131 100 130.552 100 130C100 129.448 99.5523 129 99 129C98.4477 129 98 129.448 98 130C98 130.552 98.4477 131 99 131Z" fill="white"/>
<path d="M102 101C94.5517 84.9237 86 84 78 87.5C87 88.6012 94 96 97 103C97.5 102 100.5 100.5 102 101Z" fill="#E8E8E8"/>
<path fill-rule="evenodd" clip-rule="evenodd" d="M67.2458 96.0027C67.8404 94.5167 68.6329 93.1314 69.5906 91.8791C72.788 87.6979 77.8282 85 83.5 85C91.9672 85 99.0285 91.0125 100.65 99.0012C105.319 99.0734 109.17 102.514 109.882 107H131C131.552 107 132 107.448 132 108C132 108.552 131.552 109 131 109H108.985C108.456 109 108.018 108.587 107.987 108.058C107.759 104.122 104.494 101 100.5 101C100.29 101 100.101 101.007 99.8953 101.024C99.3717 101.066 98.9051 100.695 98.827 100.176L98.8232 100.15C97.7223 92.9075 91.6066 87.3113 84.1295 87.0125C83.9207 87.0042 83.7108 87 83.5 87C78.4295 87 73.9262 89.4351 71.098 93.2008C69.1526 95.7912 68 99.011 68 102.5C68 103.052 67.5523 103.5 67 103.5C66.4477 103.5 66 103.052 66 102.5C66 100.947 66.2022 99.4419 66.5817 98.0086C61.2529 98.2278 57 102.617 57 108C57 108.552 56.5523 109 56 109H37C36.4477 109 36 108.552 36 108C36 107.448 36.4477 107 37 107H55.0411C55.5492 100.84 60.7093 96 67 96C67.0811 96.0001 67.1633 96.001 67.2458 96.0027ZM135 108C135 107.448 135.448 107 136 107H145C145.552 107 146 107.448 146 108C146 108.552 145.552 109 145 109H136C135.448 109 135 108.552 135 108Z" fill="#CAD3D9"/>
<path fill-rule="evenodd" clip-rule="evenodd" d="M67.2458 96.0027C67.8404 94.5167 68.6329 93.1314 69.5906 91.8791C72.788 87.6979 77.8282 85 83.5 85C91.9672 85 99.0285 91.0125 100.65 99.0012C105.319 99.0734 109.17 102.514 109.882 107H131C131.552 107 132 107.448 132 108C132 108.552 131.552 109 131 109H108.985C108.456 109 108.018 108.587 107.987 108.058C107.759 104.122 104.494 101 100.5 101C100.29 101 100.101 101.007 99.8953 101.024C99.3717 101.066 98.9051 100.695 98.827 100.176L98.8232 100.15C97.7223 92.9075 91.6066 87.3113 84.1295 87.0125C83.9207 87.0042 83.7108 87 83.5 87C78.4295 87 73.9262 89.4351 71.098 93.2008C69.1526 95.7912 68 99.011 68 102.5C68 103.052 67.5523 103.5 67 103.5C66.4477 103.5 66 103.052 66 102.5C66 100.947 66.2022 99.4419 66.5817 98.0086C61.2529 98.2278 57 102.617 57 108C57 108.552 56.5523 109 56 109H37C36.4477 109 36 108.552 36 108C36 107.448 36.4477 107 37 107H55.0411C55.5492 100.84 60.7093 96 67 96C67.0811 96.0001 67.1633 96.001 67.2458 96.0027ZM135 108C135 107.448 135.448 107 136 107H145C145.552 107 146 107.448 146 108C146 108.552 145.552 109 145 109H136C135.448 109 135 108.552 135 108Z" fill="#CCCCCC"/>
<path d="M279 74C276 64.5 265 61.1673 257 64.6673C266 65.7685 270 70 273 77C274.5 75.5 276.5 74.5 279 74Z" fill="#E8E8E8"/>
<path fill-rule="evenodd" clip-rule="evenodd" d="M263.5 62C254.433 62 246.891 68.5214 245.306 77.1297C240.689 77.8434 237.022 81.4262 236.181 86H216C215.448 86 215 86.4477 215 87C215 87.5523 215.448 88 216 88H237.049C237.563 88 237.994 87.6103 238.045 87.0988C238.472 82.7968 241.931 79.3846 246.254 79.0304C246.72 78.9922 247.097 78.6363 247.163 78.1734C248.293 70.1627 255.177 64 263.5 64C269.644 64 275.006 67.3584 277.846 72.3432C276.693 72.5909 275.585 72.9655 274.571 73.444C274.072 73.681 273.86 74.2775 274.097 74.7764C274.334 75.2752 274.93 75.4875 275.429 75.2505C276.673 74.6553 277.967 74.2639 279.356 74.095C279.396 74.0952 279.436 74.093 279.477 74.0882C279.986 74.0284 280.475 73.9996 281 74C284.687 74 288.015 75.5347 290.381 78C292.622 80.3358 294 83.507 294 87C294 87.4833 294.343 87.8864 294.799 87.9797C294.864 87.993 294.931 88 295 88H315C315.552 88 316 87.5523 316 87C316 86.4477 315.552 86 315 86H295.967C295.742 82.5796 294.37 79.4724 292.233 77.059C289.485 73.956 285.471 72 281 72C280.655 72.0003 280.302 72.0128 279.955 72.0366C276.884 66.0779 270.669 62 263.5 62ZM318 87C318 86.4477 318.448 86 319 86H323C323.552 86 324 86.4477 324 87C324 87.5523 323.552 88 323 88H319C318.448 88 318 87.5523 318 87ZM203 87C203 86.4477 203.448 86 204 86H212C212.552 86 213 86.4477 213 87C213 87.5523 212.552 88 212 88H204C203.448 88 203 87.5523 203 87Z" fill="#CAD3D9"/>
<path fill-rule="evenodd" clip-rule="evenodd" d="M263.5 62C254.433 62 246.891 68.5214 245.306 77.1297C240.689 77.8434 237.022 81.4262 236.181 86H216C215.448 86 215 86.4477 215 87C215 87.5523 215.448 88 216 88H237.049C237.563 88 237.994 87.6103 238.045 87.0988C238.472 82.7968 241.931 79.3846 246.254 79.0304C246.72 78.9922 247.097 78.6363 247.163 78.1734C248.293 70.1627 255.177 64 263.5 64C269.644 64 275.006 67.3584 277.846 72.3432C276.693 72.5909 275.585 72.9655 274.571 73.444C274.072 73.681 273.86 74.2775 274.097 74.7764C274.334 75.2752 274.93 75.4875 275.429 75.2505C276.673 74.6553 277.967 74.2639 279.356 74.095C279.396 74.0952 279.436 74.093 279.477 74.0882C279.986 74.0284 280.475 73.9996 281 74C284.687 74 288.015 75.5347 290.381 78C292.622 80.3358 294 83.507 294 87C294 87.4833 294.343 87.8864 294.799 87.9797C294.864 87.993 294.931 88 295 88H315C315.552 88 316 87.5523 316 87C316 86.4477 315.552 86 315 86H295.967C295.742 82.5796 294.37 79.4724 292.233 77.059C289.485 73.956 285.471 72 281 72C280.655 72.0003 280.302 72.0128 279.955 72.0366C276.884 66.0779 270.669 62 263.5 62ZM318 87C318 86.4477 318.448 86 319 86H323C323.552 86 324 86.4477 324 87C324 87.5523 323.552 88 323 88H319C318.448 88 318 87.5523 318 87ZM203 87C203 86.4477 203.448 86 204 86H212C212.552 86 213 86.4477 213 87C213 87.5523 212.552 88 212 88H204C203.448 88 203 87.5523 203 87Z" fill="#CCCCCC"/>
<path d="M197 173C186.5 156.5 171.5 153 158.5 158C176.5 159.5 188.448 172.971 190 179C193.5 175 196 173 197 173Z" fill="#E8E8E8"/>
<path fill-rule="evenodd" clip-rule="evenodd" d="M144.108 181.09C145.325 167.584 156.677 157 170.5 157C181.138 157 190.313 163.268 194.532 172.316C193.061 173.07 191.767 174.118 190.728 175.382C190.377 175.809 190.438 176.439 190.865 176.79C191.291 177.14 191.922 177.079 192.272 176.653C194.108 174.421 196.888 173 200 173C204.901 173 208.98 176.527 209.835 181.181C209.92 181.642 210.313 181.981 210.779 181.999L210.791 182C210.8 182 210.809 182 210.819 182H210.836H246C246.552 182 247 181.552 247 181C247 180.448 246.552 180 246 180H211.622C210.289 174.824 205.592 171 200 171C198.74 171 197.524 171.194 196.383 171.555C191.866 161.783 181.976 155 170.5 155C155.945 155 143.939 165.91 142.213 180H116C115.448 180 115 180.448 115 181C115 181.552 115.448 182 116 182H143.112C143.63 182 144.062 181.605 144.108 181.09ZM105 181C105 180.448 105.448 180 106 180H112C112.552 180 113 180.448 113 181C113 181.552 112.552 182 112 182H106C105.448 182 105 181.552 105 181Z" fill="#CAD3D9"/>
<path fill-rule="evenodd" clip-rule="evenodd" d="M144.108 181.09C145.325 167.584 156.677 157 170.5 157C181.138 157 190.313 163.268 194.532 172.316C193.061 173.07 191.767 174.118 190.728 175.382C190.377 175.809 190.438 176.439 190.865 176.79C191.291 177.14 191.922 177.079 192.272 176.653C194.108 174.421 196.888 173 200 173C204.901 173 208.98 176.527 209.835 181.181C209.92 181.642 210.313 181.981 210.779 181.999L210.791 182C210.8 182 210.809 182 210.819 182H210.836H246C246.552 182 247 181.552 247 181C247 180.448 246.552 180 246 180H211.622C210.289 174.824 205.592 171 200 171C198.74 171 197.524 171.194 196.383 171.555C191.866 161.783 181.976 155 170.5 155C155.945 155 143.939 165.91 142.213 180H116C115.448 180 115 180.448 115 181C115 181.552 115.448 182 116 182H143.112C143.63 182 144.062 181.605 144.108 181.09ZM105 181C105 180.448 105.448 180 106 180H112C112.552 180 113 180.448 113 181C113 181.552 112.552 182 112 182H106C105.448 182 105 181.552 105 181Z" fill="#CCCCCC"/>
<path fill-rule="evenodd" clip-rule="evenodd" d="M169.405 43.809C168.142 42.653 166.5 42 164.753 42C160.97 42 157.907 45.025 157.907 48.75C157.907 51.4106 159.487 53.788 161.906 54.8819C162.42 55.1145 162.64 55.7264 162.392 56.2332C161.775 57.4903 161.451 58.8503 161.451 60.25C161.451 65.3558 165.646 69.5 170.827 69.5C173.416 69.5 175.833 68.4561 177.594 66.6415C177.783 66.4475 178.041 66.338 178.312 66.338H190.923L169.405 43.809ZM145 79C136.163 79 129 86.1634 129 95V125H147H161H223V96C223 86.4891 215.439 79 206 79H203C202.981 79 202.959 79.0002 202.933 79.0006C202.895 79.0012 202.85 79.0021 202.801 79.0031C202.578 79.0076 202.258 79.0141 202 79H147V79.1238C146.345 79.0421 145.677 79 145 79ZM173 155.108V127H179V156.289C177.079 155.69 175.071 155.288 173 155.108Z" fill="white"/>
<path fill-rule="evenodd" clip-rule="evenodd" d="M217 125H223V96C223 86.4891 215.561 79 206 79H204C203.437 79 202.89 79.0165 202.357 79.0489C210.207 80.2142 217 87.2985 217 96V125ZM170 89C170 91 170 91.7614 170 89C170 91.7614 170 91.5 170 89C170 90.5 170 86.2386 170 89C170 86.2386 170 86.2386 170 89Z" fill="#031846" fill-opacity="0.22"/>
<path fill-rule="evenodd" clip-rule="evenodd" d="M156.27 51.2326C156.897 53.3238 158.299 55.1168 160.204 56.247C159.709 57.5197 159.451 58.8688 159.451 60.25C159.451 64.6591 162.015 68.4737 165.747 70.3187V77H145C135.059 77 127 85.0589 127 95V127H145H163H171V155.004C171.673 155.016 172.34 155.051 173 155.108V127H179V156.289C179.678 156.501 180.345 156.737 181 156.997V127H225V96C225 85.3802 216.539 77 206 77H171.747V71.4635C174.387 71.253 176.837 70.1416 178.724 68.338H193.261C194.141 68.338 194.592 67.2835 193.984 66.6472L170.803 42.3807C169.128 40.8439 167.006 40 164.753 40C160.712 40 157.301 42.6819 156.245 46.3477L154.948 46.889L152.615 47.8618C151.795 48.2038 151.795 49.3658 152.615 49.7078L154.949 50.6808L156.27 51.2326ZM167.747 77V71.0827C168.392 71.2618 169.061 71.386 169.747 71.4499V77H167.747ZM223 125V96C223 86.4891 215.439 79 206 79H203C202.952 79 202.883 79.0014 202.801 79.0031C202.578 79.0076 202.258 79.0141 202 79H153.254C159.043 81.9925 163 88.0341 163 95V125H171H181H223ZM129 95C129 86.1634 136.163 79 145 79C153.837 79 161 86.1634 161 95V125H129V95ZM175 88C173.629 88 174.436 88 175 88C174.436 88 174 88 175 88ZM169.405 43.809C168.142 42.653 166.5 42 164.753 42C160.97 42 157.907 45.0251 157.907 48.75C157.907 51.4106 159.487 53.788 161.906 54.8819C162.42 55.1145 162.64 55.7264 162.392 56.2332C161.775 57.4903 161.451 58.8503 161.451 60.25C161.451 65.3558 165.646 69.5 170.827 69.5C173.416 69.5 175.833 68.4561 177.594 66.6415C177.783 66.4475 178.041 66.338 178.312 66.338H190.923L169.405 43.809ZM166.6 55.5192C166.049 55.5499 165.627 56.0219 165.657 56.5733C165.716 57.6331 166.216 59.1231 167.529 60.5908C169.182 62.4381 171.756 63.7011 175.382 64.1506C175.93 64.2186 176.429 63.8293 176.497 63.2812C176.565 62.7331 176.176 62.2337 175.628 62.1658C172.465 61.7737 170.337 60.7295 169.02 59.2572C168.448 58.618 168.068 57.9387 167.842 57.2642C167.712 56.8756 167.662 56.5903 167.654 56.4621C167.624 55.9107 167.152 55.4885 166.6 55.5192ZM163.247 49.838C164.075 49.838 164.747 49.1664 164.747 48.338C164.747 47.5096 164.075 46.838 163.247 46.838C162.418 46.838 161.747 47.5096 161.747 48.338C161.747 49.1664 162.418 49.838 163.247 49.838Z" fill="#031846"/>
<path fill-rule="evenodd" clip-rule="evenodd" d="M242 28C242.342 28 242.496 29.1018 243.246 29.8518C243.996 30.6018 245 30.6592 245 31C245 31.3408 243.989 31.4936 243.239 32.2436C242.489 32.9936 242.434 34 242 34C241.566 34 241.488 32.9428 240.738 32.1928C239.988 31.4428 239 31.3736 239 31C239 30.6264 239.905 30.615 240.689 29.8307C241.473 29.0463 241.658 28 242 28Z" fill="#FFDB63"/>
<path fill-rule="evenodd" clip-rule="evenodd" d="M138 0C138.571 0 138.827 1.83642 140.077 3.08642C141.327 4.33642 143 4.43202 143 5C143 5.56798 141.316 5.8226 140.066 7.0726C138.816 8.3226 138.723 10 138 10C137.277 10 137.146 8.23797 135.896 6.98797C134.646 5.73797 133 5.62266 133 5C133 4.37734 134.508 4.35838 135.815 3.0511C137.122 1.74383 137.429 0 138 0Z" fill="#FFDB63"/>
<path fill-rule="evenodd" clip-rule="evenodd" d="M298 5C298.342 5 298.496 6.1018 299.246 6.8518C299.996 7.6018 301 7.6592 301 8C301 8.3408 299.989 8.4936 299.239 9.2436C298.489 9.9936 298.434 11 298 11C297.566 11 297.488 9.9428 296.738 9.1928C295.988 8.4428 295 8.3736 295 8C295 7.6264 295.905 7.615 296.689 6.8307C297.473 6.0463 297.658 5 298 5Z" fill="#FFDB63"/>
</svg>
