<svg width="115" height="40" viewBox="0 0 115 40" fill="none" xmlns="http://www.w3.org/2000/svg">
<path fill-rule="evenodd" clip-rule="evenodd" d="M96.9676 11.5253C96.5164 11.5253 96.0837 11.7039 95.7645 12.0217C95.4454 12.3396 95.2664 12.7707 95.2664 13.2202H92.5445C92.5445 12.0514 93.0107 10.9306 93.8401 10.1042C94.6696 9.27768 95.7945 8.81348 96.9676 8.81348C98.1407 8.81348 99.2656 9.27768 100.095 10.1042C100.925 10.9306 101.391 12.0514 101.391 13.2202C101.391 13.7989 101.276 14.3719 101.054 14.9066C100.832 15.4412 100.506 15.927 100.095 16.3363C99.6847 16.7454 99.1968 17.0701 98.6599 17.2916C98.1237 17.513 97.5487 17.627 96.9676 17.627H88.2079C87.5601 16.5769 86.7401 15.6577 85.7915 14.9152H96.9676C97.1908 14.9152 97.412 14.8713 97.6188 14.7862C97.825 14.701 98.0128 14.5761 98.1707 14.4187C98.3286 14.2613 98.4538 14.0744 98.5395 13.8688C98.6246 13.6632 98.6688 13.4428 98.6688 13.2202C98.6688 12.7707 98.4898 12.3396 98.1707 12.0217C97.8515 11.7039 97.4188 11.5253 96.9676 11.5253ZM89.1837 27.1186H102.071C102.294 27.1186 102.516 27.1624 102.722 27.2476C102.929 27.3327 103.116 27.4576 103.274 27.615C103.432 27.7724 103.557 27.9593 103.643 28.1649C103.728 28.3706 103.772 28.591 103.772 28.8135C103.772 29.263 103.593 29.6942 103.274 30.012C102.955 30.3298 102.522 30.5084 102.071 30.5084C101.62 30.5084 101.187 30.3298 100.868 30.012C100.549 29.6942 100.37 29.263 100.37 28.8135H97.6481C97.6481 29.9823 98.1142 31.1032 98.9437 31.9295C99.7732 32.756 100.898 33.2203 102.071 33.2203C103.244 33.2203 104.369 32.756 105.199 31.9295C106.028 31.1032 106.494 29.9823 106.494 28.8135C106.494 28.2348 106.38 27.6618 106.157 27.1272C105.936 26.5925 105.61 26.1067 105.199 25.6975C104.788 25.2883 104.3 24.9636 103.763 24.7422C103.227 24.5207 102.652 24.4067 102.071 24.4067H89.777C89.692 25.3529 89.4885 26.2625 89.1837 27.1186ZM89.777 22.3728H105.814C106.395 22.3728 106.97 22.2588 107.506 22.0373C108.043 21.8158 108.531 21.4912 108.941 21.082C109.352 20.6728 109.678 20.187 109.9 19.6523C110.123 19.1177 110.237 18.5447 110.237 17.966C110.237 16.7972 109.771 15.6763 108.941 14.8499C108.112 14.0234 106.987 13.5592 105.814 13.5592C104.641 13.5592 103.516 14.0234 102.686 14.8499C101.857 15.6763 101.391 16.7972 101.391 17.966H104.113C104.113 17.5165 104.292 17.0853 104.611 16.7675C104.93 16.4497 105.363 16.2711 105.814 16.2711C106.265 16.2711 106.698 16.4497 107.017 16.7675C107.336 17.0853 107.515 17.5165 107.515 17.966C107.515 18.1885 107.471 18.4089 107.386 18.6146C107.3 18.8202 107.175 19.0071 107.017 19.1645C106.859 19.3219 106.671 19.4468 106.465 19.5319C106.258 19.6171 106.037 19.6609 105.814 19.6609H89.1837C89.4885 20.517 89.692 21.4266 89.777 22.3728Z" fill="white"/>
<path d="M7.51221 9.08465H10.7785V29.0331H23.1577V31.8643H7.51221V9.08465ZM40.0742 14.6169V31.8643H37.1018V29.2609C36.4704 30.1504 35.632 30.8447 34.5868 31.3436C33.5634 31.8209 32.442 32.0596 31.2226 32.0596C28.9144 32.0596 27.0962 31.4304 25.7679 30.1721C24.4396 28.8921 23.7755 27.0155 23.7755 24.5423V14.6169H26.9111V24.1843C26.9111 25.8548 27.3139 27.124 28.1196 27.9918C28.9253 28.8379 30.0794 29.2609 31.5818 29.2609C33.2368 29.2609 34.5433 28.7619 35.5014 27.764C36.4595 26.766 36.9385 25.3558 36.9385 23.5335V14.6169H40.0742ZM50.0937 10.0935C48.221 10.0935 47.2846 11.1023 47.2846 13.1199V14.6169H52.3147V17.1877H47.35V31.8643H44.2144V17.1877H41.2747V14.6169H44.2144V13.0874C44.2144 11.3735 44.7152 10.0175 45.7168 9.01957C46.7185 8.0216 48.123 7.52262 49.9303 7.52262C50.6271 7.52262 51.2804 7.6094 51.8901 7.78296C52.4998 7.95652 53.0224 8.20601 53.4579 8.53143L52.5108 10.907C51.7921 10.3647 50.9864 10.0935 50.0937 10.0935ZM62.7191 30.8555C62.2618 31.246 61.6957 31.5497 61.0206 31.7667C60.3456 31.9619 59.6488 32.0596 58.9302 32.0596C57.1882 32.0596 55.8381 31.5931 54.88 30.6602C53.9219 29.7274 53.4429 28.3931 53.4429 26.6575V17.1877H50.5032V14.6169H53.4429V10.8419H56.5785V14.6169H61.5432V17.1877H56.5785V26.5274C56.5785 27.4602 56.8071 28.1762 57.2644 28.6752C57.7435 29.1741 58.4185 29.4236 59.2895 29.4236C60.2476 29.4236 61.0642 29.1525 61.7392 28.6101L62.7191 30.8555ZM64.2236 14.6169H67.3592V31.8643H64.2236V14.6169ZM65.7914 11.2975C65.1817 11.2975 64.67 11.1023 64.2563 10.7118C63.8643 10.3213 63.6683 9.84397 63.6683 9.27991C63.6683 8.71584 63.8643 8.23855 64.2563 7.84804C64.67 7.43584 65.1817 7.22974 65.7914 7.22974C66.4011 7.22974 66.9019 7.42499 67.2939 7.8155C67.7076 8.18431 67.9145 8.65075 67.9145 9.21482C67.9145 9.80058 67.7076 10.2996 67.2939 10.7118C66.9019 11.1023 66.4011 11.2975 65.7914 11.2975ZM78.474 32.0596C76.7538 32.0596 75.2077 31.6799 73.8359 30.9206C72.4641 30.1613 71.3862 29.1199 70.6023 27.7965C69.8402 26.4514 69.4591 24.9328 69.4591 23.2406C69.4591 21.5484 69.8402 20.0406 70.6023 18.7172C71.3862 17.3721 72.4641 16.3308 73.8359 15.5931C75.2077 14.8338 76.7538 14.4541 78.474 14.4541C80.1942 14.4541 81.7294 14.8338 83.0795 15.5931C84.4513 16.3308 85.5183 17.3721 86.2804 18.7172C87.0643 20.0406 87.4563 21.5484 87.4563 23.2406C87.4563 24.9328 87.0643 26.4514 86.2804 27.7965C85.5183 29.1199 84.4513 30.1613 83.0795 30.9206C81.7294 31.6799 80.1942 32.0596 78.474 32.0596ZM78.474 29.326C79.5845 29.326 80.5753 29.0765 81.4463 28.5775C82.3391 28.0569 83.0359 27.3409 83.5367 26.4297C84.0376 25.4969 84.288 24.4338 84.288 23.2406C84.288 22.0474 84.0376 20.9952 83.5367 20.084C83.0359 19.1511 82.3391 18.4352 81.4463 17.9362C80.5753 17.4372 79.5845 17.1877 78.474 17.1877C77.3635 17.1877 76.3618 17.4372 75.469 17.9362C74.598 18.4352 73.9012 19.1511 73.3786 20.084C72.8778 20.9952 72.6274 22.0474 72.6274 23.2406C72.6274 24.4338 72.8778 25.4969 73.3786 26.4297C73.9012 27.3409 74.598 28.0569 75.469 28.5775C76.3618 29.0765 77.3635 29.326 78.474 29.326Z" fill="white"/>
</svg>
