<svg width="58" height="32" viewBox="0 0 58 32" fill="none" xmlns="http://www.w3.org/2000/svg">
<path d="M15.5562 22.2083C15.5562 22.2083 14.2422 22.3863 13.6392 22.5283C13.1412 22.6353 12.5382 22.6703 12.3252 22.5283C12.1472 22.3863 13.1052 22.1023 12.8572 22.0313C12.6442 21.9253 11.3662 22.2443 10.7972 22.3513C10.2302 22.4573 9.55518 22.5993 9.69718 22.3513C9.87518 22.1023 12.4672 21.3573 12.4312 21.0723C12.3962 20.8593 10.4432 21.3923 9.83918 21.3213C9.23518 21.2503 6.46618 21.8543 6.85618 21.4993C7.31818 21.1083 10.8692 20.3983 10.7622 20.1143C10.6562 19.8653 5.29418 20.9663 5.47218 20.7173C5.64918 20.4693 8.73818 19.7943 9.62618 19.6873C10.5142 19.5813 14.9522 18.4803 14.6682 18.3033C14.3482 18.0903 9.41318 19.1193 8.17018 19.3683C7.17618 19.5463 -0.17482 21.1433 0.00317952 20.8593C0.18118 20.5393 3.12818 19.9363 3.12818 19.9363C8.70318 18.6223 15.0232 17.1663 17.1892 16.6693C19.3552 16.1723 22.2322 15.7463 22.5872 15.2493C22.9422 14.7523 22.9772 10.6333 25.3572 7.50831C26.6352 5.83931 31.3932 3.06931 35.5472 1.79131C39.7022 0.548311 44.8162 -1.04869 47.1592 0.939311C49.5032 2.92731 50.9592 6.15931 50.4972 7.01131C50.1422 7.65031 48.6512 7.82831 46.4132 8.00531C44.1762 8.18331 37.8562 9.39031 34.6242 10.6683C31.7842 11.7693 28.1622 14.3613 28.2332 14.5033C28.3032 14.6813 34.4832 14.1133 36.4352 13.6513C38.7432 13.1183 42.1172 12.4083 44.6382 12.6573C45.4552 12.7273 46.9822 15.1423 47.2302 16.7403C47.4792 18.3383 47.3722 19.7233 46.3072 20.0433C45.2422 20.3273 44.0702 20.1133 42.2232 20.1853C40.6252 20.2553 32.5652 20.5053 32.4932 20.7533C32.4232 21.0013 40.0222 24.6943 44.3532 25.5473C48.3312 26.3273 52.7342 27.2163 55.2552 27.1803C56.5692 27.1803 57.2792 27.0383 57.3502 27.3583C57.4922 27.9973 55.2552 28.1743 54.1192 28.6363C52.9472 29.1333 51.6692 30.3403 50.5682 30.6243C47.3372 31.4063 43.5022 32.0093 35.2642 29.6663C27.0252 27.3223 25.1442 21.9603 24.5402 21.8543C23.9362 21.7123 17.1182 21.7123 15.5562 22.2093V22.2083Z" fill="#FC6723"/>
</svg>
